<svg xmlns="http://www.w3.org/2000/svg" xmlns:xlink="http://www.w3.org/1999/xlink" xmlns:lucid="lucid" width="1760" height="1360"><g transform="translate(0 0)" lucid:page-tab-id="HWEp-vi-RSFO"><path d="M0 0h1760v1360H0z" fill="#fff"/><path d="M300 845.36h360v180H300z" stroke="#333" stroke-width="2" fill="#d7faf5"/><path d="M300 904.56h360" stroke="#333" stroke-width="2" fill="none"/><use xlink:href="#a" transform="matrix(1,0,0,1,308,853.3634665974541) translate(127.55 14.799999999999999)"/><use xlink:href="#b" transform="matrix(1,0,0,1,308,853.3634665974541) translate(118.125 36.4)"/><use xlink:href="#c" transform="matrix(1,0,0,1,312,912.5634665974542) translate(0 56.1)"/><use xlink:href="#d" transform="matrix(1,0,0,1,312,912.5634665974542) translate(160.8 56.1)"/><use xlink:href="#e" transform="matrix(1,0,0,1,312,912.5634665974542) translate(282.65000000000003 56.1)"/><path d="M260 149.46h440v240H260z" stroke="#333" stroke-width="2" fill="#e3fae3"/><path d="M260 187.06h440m-440 79.7h440" stroke="#333" stroke-width="2" fill="none"/><use xlink:href="#f" transform="matrix(1,0,0,1,267.9999999999996,157.46333333339157) translate(183.05 14.6)"/><use xlink:href="#g" transform="matrix(1,0,0,1,271.9999999999996,195.06333333339157) translate(0 24.799999999999997)"/><use xlink:href="#h" transform="matrix(1,0,0,1,271.9999999999996,195.06333333339157) translate(10.95 24.799999999999997)"/><use xlink:href="#i" transform="matrix(1,0,0,1,271.9999999999996,195.06333333339157) translate(117.85000000000001 24.799999999999997)"/><use xlink:href="#g" transform="matrix(1,0,0,1,271.9999999999996,195.06333333339157) translate(0 46.4)"/><use xlink:href="#j" transform="matrix(1,0,0,1,271.9999999999996,195.06333333339157) translate(10.95 46.4)"/><use xlink:href="#k" transform="matrix(1,0,0,1,271.9999999999996,195.06333333339157) translate(95.80000000000001 46.4)"/><use xlink:href="#l" transform="matrix(1,0,0,1,271.9999999999996,274.7633333333916) translate(0 24.69999999999999)"/><use xlink:href="#m" transform="matrix(1,0,0,1,271.9999999999996,274.7633333333916) translate(15.5 24.69999999999999)"/><use xlink:href="#l" transform="matrix(1,0,0,1,271.9999999999996,274.7633333333916) translate(0 46.29999999999999)"/><use xlink:href="#n" transform="matrix(1,0,0,1,271.9999999999996,274.7633333333916) translate(15.5 46.29999999999999)"/><use xlink:href="#o" transform="matrix(1,0,0,1,271.9999999999996,274.7633333333916) translate(363.09999999999997 46.29999999999999)"/><use xlink:href="#l" transform="matrix(1,0,0,1,271.9999999999996,274.7633333333916) translate(0 67.89999999999999)"/><use xlink:href="#p" transform="matrix(1,0,0,1,271.9999999999996,274.7633333333916) translate(15.5 67.89999999999999)"/><use xlink:href="#q" transform="matrix(1,0,0,1,271.9999999999996,274.7633333333916) translate(184.25 67.89999999999999)"/><use xlink:href="#o" transform="matrix(1,0,0,1,271.9999999999996,274.7633333333916) translate(210.2 67.89999999999999)"/><use xlink:href="#l" transform="matrix(1,0,0,1,271.9999999999996,274.7633333333916) translate(0 89.5)"/><use xlink:href="#r" transform="matrix(1,0,0,1,271.9999999999996,274.7633333333916) translate(15.5 89.5)"/><use xlink:href="#s" transform="matrix(1,0,0,1,271.9999999999996,274.7633333333916) translate(156.15 89.5)"/><use xlink:href="#e" transform="matrix(1,0,0,1,271.9999999999996,274.7633333333916) translate(197.10000000000002 89.5)"/><path d="M800 531.06h240v99H800z" stroke="#333" stroke-width="2" fill="#ffdda6"/><path d="M800 568.66h240" stroke="#333" stroke-width="2" fill="none"/><use xlink:href="#t" transform="matrix(1,0,0,1,808,539.0645613669856) translate(91.55 14.6)"/><use xlink:href="#u" transform="matrix(1,0,0,1,812,576.6645613669856) translate(0 26.6)"/><use xlink:href="#v" transform="matrix(1,0,0,1,812,576.6645613669856) translate(15.5 26.6)"/><use xlink:href="#w" transform="matrix(1,0,0,1,812,576.6645613669856) translate(105.30000000000001 26.6)"/><use xlink:href="#x" transform="matrix(1,0,0,1,812,576.6645613669856) translate(178.15 26.6)"/><path d="M1121 80h320v370h-320z" stroke="#333" stroke-width="2" fill="#e3fae3"/><path d="M1121 117.6h320m-320 122.9h320" stroke="#333" stroke-width="2" fill="none"/><use xlink:href="#y" transform="matrix(1,0,0,1,1129,88) translate(122.05 14.6)"/><use xlink:href="#z" transform="matrix(1,0,0,1,1133,125.6) translate(0 24.69999999999999)"/><use xlink:href="#A" transform="matrix(1,0,0,1,1133,125.6) translate(5 24.69999999999999)"/><use xlink:href="#B" transform="matrix(1,0,0,1,1133,125.6) translate(15.95 24.69999999999999)"/><use xlink:href="#C" transform="matrix(1,0,0,1,1133,125.6) translate(70.9 24.69999999999999)"/><use xlink:href="#z" transform="matrix(1,0,0,1,1133,125.6) translate(0 46.29999999999999)"/><use xlink:href="#A" transform="matrix(1,0,0,1,1133,125.6) translate(5 46.29999999999999)"/><use xlink:href="#D" transform="matrix(1,0,0,1,1133,125.6) translate(15.95 46.29999999999999)"/><use xlink:href="#E" transform="matrix(1,0,0,1,1133,125.6) translate(55.95 46.29999999999999)"/><use xlink:href="#z" transform="matrix(1,0,0,1,1133,125.6) translate(0 67.89999999999999)"/><use xlink:href="#A" transform="matrix(1,0,0,1,1133,125.6) translate(5 67.89999999999999)"/><use xlink:href="#F" transform="matrix(1,0,0,1,1133,125.6) translate(15.95 67.89999999999999)"/><use xlink:href="#E" transform="matrix(1,0,0,1,1133,125.6) translate(74.9 67.89999999999999)"/><use xlink:href="#z" transform="matrix(1,0,0,1,1133,125.6) translate(0 89.5)"/><use xlink:href="#A" transform="matrix(1,0,0,1,1133,125.6) translate(5 89.5)"/><use xlink:href="#G" transform="matrix(1,0,0,1,1133,125.6) translate(15.95 89.5)"/><use xlink:href="#H" transform="matrix(1,0,0,1,1133,125.6) translate(77.85000000000001 89.5)"/><use xlink:href="#l" transform="matrix(1,0,0,1,1133,248.5) translate(0 25.000000000000007)"/><use xlink:href="#I" transform="matrix(1,0,0,1,1133,248.5) translate(15.5 25.000000000000007)"/><use xlink:href="#J" transform="matrix(1,0,0,1,1133,248.5) translate(110.30000000000001 25.000000000000007)"/><use xlink:href="#l" transform="matrix(1,0,0,1,1133,248.5) translate(0 46.60000000000001)"/><use xlink:href="#K" transform="matrix(1,0,0,1,1133,248.5) translate(15.5 46.60000000000001)"/><use xlink:href="#L" transform="matrix(1,0,0,1,1133,248.5) translate(148.3 46.60000000000001)"/><use xlink:href="#o" transform="matrix(1,0,0,1,1133,248.5) translate(211.15 46.60000000000001)"/><use xlink:href="#l" transform="matrix(1,0,0,1,1133,248.5) translate(0 68.20000000000002)"/><use xlink:href="#M" transform="matrix(1,0,0,1,1133,248.5) translate(15.5 68.20000000000002)"/><use xlink:href="#E" transform="matrix(1,0,0,1,1133,248.5) translate(94.4 68.20000000000002)"/><use xlink:href="#l" transform="matrix(1,0,0,1,1133,248.5) translate(0 89.80000000000003)"/><use xlink:href="#N" transform="matrix(1,0,0,1,1133,248.5) translate(15.5 89.80000000000003)"/><use xlink:href="#O" transform="matrix(1,0,0,1,1133,248.5) translate(117.45 89.80000000000003)"/><use xlink:href="#o" transform="matrix(1,0,0,1,1133,248.5) translate(189.35000000000002 89.80000000000003)"/><use xlink:href="#l" transform="matrix(1,0,0,1,1133,248.5) translate(0 111.40000000000002)"/><use xlink:href="#P" transform="matrix(1,0,0,1,1133,248.5) translate(15.5 111.40000000000002)"/><use xlink:href="#E" transform="matrix(1,0,0,1,1133,248.5) translate(114.30000000000001 111.40000000000002)"/><use xlink:href="#l" transform="matrix(1,0,0,1,1133,248.5) translate(0 133)"/><use xlink:href="#Q" transform="matrix(1,0,0,1,1133,248.5) translate(15.5 133)"/><use xlink:href="#O" transform="matrix(1,0,0,1,1133,248.5) translate(156.3 133)"/><use xlink:href="#o" transform="matrix(1,0,0,1,1133,248.5) translate(228.20000000000002 133)"/><use xlink:href="#l" transform="matrix(1,0,0,1,1133,248.5) translate(0 154.6)"/><use xlink:href="#R" transform="matrix(1,0,0,1,1133,248.5) translate(15.5 154.6)"/><use xlink:href="#E" transform="matrix(1,0,0,1,1133,248.5) translate(114.30000000000001 154.6)"/><use xlink:href="#l" transform="matrix(1,0,0,1,1133,248.5) translate(0 176.20000000000002)"/><use xlink:href="#S" transform="matrix(1,0,0,1,1133,248.5) translate(15.5 176.20000000000002)"/><use xlink:href="#O" transform="matrix(1,0,0,1,1133,248.5) translate(162.9 176.20000000000002)"/><use xlink:href="#e" transform="matrix(1,0,0,1,1133,248.5) translate(234.8 176.20000000000002)"/><path d="M780 1071.06h360v107H780z" stroke="#333" stroke-width="2" fill="#e3fae3"/><path d="M780 1108.66h360" stroke="#333" stroke-width="2" fill="none"/><g><use xlink:href="#T" transform="matrix(1,0,0,1,788,1079.0645613669856) translate(101.175 14.6)"/></g><g><use xlink:href="#c" transform="matrix(1,0,0,1,792,1116.6645613669855) translate(10.199999999999989 30.6)"/><use xlink:href="#d" transform="matrix(1,0,0,1,792,1116.6645613669855) translate(171 30.6)"/><use xlink:href="#e" transform="matrix(1,0,0,1,792,1116.6645613669855) translate(292.85 30.6)"/></g><path d="M780 942.14h360v107H780z" stroke="#333" stroke-width="2" fill="#e3fae3"/><path d="M780 979.74h360" stroke="#333" stroke-width="2" fill="none"/><g><use xlink:href="#U" transform="matrix(1,0,0,1,788,950.1378947002024) translate(88.4 14.6)"/></g><g><use xlink:href="#c" transform="matrix(1,0,0,1,792,987.7378947002024) translate(10.199999999999989 30.6)"/><use xlink:href="#d" transform="matrix(1,0,0,1,792,987.7378947002024) translate(171 30.6)"/><use xlink:href="#e" transform="matrix(1,0,0,1,792,987.7378947002024) translate(292.85 30.6)"/></g><path d="M780 691.06h360v107H780z" stroke="#333" stroke-width="2" fill="#e3fae3"/><path d="M780 728.66h360" stroke="#333" stroke-width="2" fill="none"/><g><use xlink:href="#V" transform="matrix(1,0,0,1,788,699.0645613669856) translate(93.65 14.6)"/></g><g><use xlink:href="#c" transform="matrix(1,0,0,1,792,736.6645613669856) translate(10.199999999999989 30.6)"/><use xlink:href="#d" transform="matrix(1,0,0,1,792,736.6645613669856) translate(171 30.6)"/><use xlink:href="#e" transform="matrix(1,0,0,1,792,736.6645613669856) translate(292.85 30.6)"/></g><path d="M780 814.66h360v107H780z" stroke="#333" stroke-width="2" fill="#e3fae3"/><path d="M780 852.26h360" stroke="#333" stroke-width="2" fill="none"/><g><use xlink:href="#W" transform="matrix(1,0,0,1,788,822.663687727053) translate(90.225 14.6)"/></g><g><use xlink:href="#c" transform="matrix(1,0,0,1,792,860.263687727053) translate(10.199999999999989 30.6)"/><use xlink:href="#d" transform="matrix(1,0,0,1,792,860.263687727053) translate(171 30.6)"/><use xlink:href="#e" transform="matrix(1,0,0,1,792,860.263687727053) translate(292.85 30.6)"/></g><path d="M988 529.56V322.13a12 12 0 0 1 12-12h103.62" stroke="#333" fill="none"/><path d="M988.5 530.06h-1v-.5h1z" stroke="#333" stroke-width=".05" fill="#333"/><path d="M1118.38 310.13l-14.26 4.63v-9.27z" stroke="#333" fill="#333"/><path d="M874 529.56v-209.7a12 12 0 0 0-12-12H717.38" stroke="#333" fill="none"/><path d="M874.5 530.06h-1v-.5h1z" stroke="#333" stroke-width=".05" fill="#333"/><path d="M702.62 307.86l14.26-4.63v9.27z" stroke="#333" fill="#333"/><path d="M731.37 212.66h372.25" stroke="#333" fill="none"/><path d="M701.7 212.66l14.86-14.85 15.15 14.86-15.14 14.85z" stroke="#333" fill="#fff"/><path d="M1118.38 212.66l-14.26 4.64v-9.27z" stroke="#333" fill="#333"/><path d="M1041.5 580.56h4.9m4.9 0h9.8m4.9 0h9.82m4.9 0h9.8m4.9 0h9.82m4.9 0h9.8m4.9 0h9.8m4.92 0h9.8m4.9 0h9.8m4.9 0h9.82m4.9 0h9.8m4.9 0h9.8m4.92 0h4.9l1.88.15 1.83.45 1.75.72m4.26 3.64l1 1.62.7 1.74.45 1.83v4.96m0 4.97v9.94m0 4.97v9.94m0 4.97l.02 9.94m0 4.96v9.94m0 4.97v9.94m0 4.98v9.94m0 4.97v9.93m0 4.97l.02 9.94m0 4.97v9.95m0 4.97v9.95m0 4.97v9.94m0 4.97v9.94m0 4.96v9.94m0 4.97v9.94m0 4.98l.02 9.94m0 4.97v9.93m0 4.97v9.94m0 4.97v9.95m0 4.97v9.94m.02 4.97v9.94m0 4.97v9.94m0 4.97v9.94m0 4.96v9.95m0 4.98v9.94m.02 4.97v9.93m0 4.97v9.94m0 4.97v9.95m0 4.97v9.94m0 4.97l.02 9.94m0 4.97v9.94m0 4.97v9.94m0 4.96v9.94m0 4.97v9.94m0 4.98l.02 9.94m0 4.97v4.96l-.15 1.88-.44 1.83-.7 1.74m-3.65 4.27l-1.6 1-1.74.7-1.82.45h-5.2m-5.22.02l-10.4.03m-5.22 0l-10.42.03m-5.2.02l-10.42.02m-5.2 0l-5.22.02" stroke="#333" fill="none"/><path d="M1041.5 581.06h-.5v-1h.5z" stroke="#333" stroke-width=".05" fill="#333"/><path d="M1142.62 1124.56l14.26-4.63v9.27z" stroke="#333" fill="#333"/><path d="M1041.5 580.56h4.9m4.9 0h9.8m4.9 0h9.82m4.9 0h9.8m4.9 0h9.82m4.9 0h9.8m4.9 0h9.8m4.92 0h9.8m4.9 0h9.8m4.9 0h9.82m4.9 0h9.8m4.9 0h9.8m4.92 0h4.9l1.88.15 1.83.45 1.75.72m4.26 3.64l1 1.62.7 1.74.45 1.83v5.03m0 5.03v10.08m0 5.04l.02 10.07m0 5.04v10.07m0 5.03v10.08m0 5.04v10.07m0 5.03l.02 10.08m0 5.04v10.08m0 5.04v10.07m0 5.04v10.08m0 5.03v10.08m0 5.04l.02 10.07m0 5.04v10.1m0 5.02v10.08m0 5.04v10.07m.02 5.05v10.08m0 5.04v10.07m0 5.04v10.07m0 5.04l.02 10.07m0 5.04v10.08m0 5.04V898m0 5.03v10.08m.02 5.05v10.07m0 5.04v10.08m0 5.03v10.08m0 5.04l.02 10.06m0 5.04v5.04l-.15 1.88-.44 1.83-.7 1.74m-3.65 4.25l-1.6.98-1.74.72-1.82.44h-5.2m-5.22 0l-10.4.04m-5.22 0l-10.42.04m-5.2 0l-10.42.03m-5.2.03h-5.22" stroke="#333" fill="none"/><path d="M1041.5 581.06h-.5v-1h.5z" stroke="#333" stroke-width=".05" fill="#333"/><path d="M1142.62 995.64l14.26-4.64v9.27z" stroke="#333" fill="#333"/><path d="M1041.5 580.56h4.9m4.9 0h9.8m4.9 0h9.82m4.9 0h9.8m4.9 0h9.82m4.9 0h9.8m4.9 0h9.8m4.92 0h9.8m4.9 0h9.8m4.9 0h9.82m4.9 0h9.8m4.9 0h9.8m4.92 0h4.9l1.88.15 1.83.45 1.75.72m4.26 3.64l1 1.62.7 1.74.45 1.83v4.9m0 4.92v9.83m.02 4.92v9.83m0 4.92v9.83m0 4.92l.02 9.83m0 4.9v9.85m0 4.9v9.85m0 4.9v9.84m.02 4.92v9.83m0 4.9v9.84m0 4.92l.02 9.83m0 4.9v9.84m0 4.92v9.83m.02 4.9v9.84m0 4.9v9.85m0 4.9l.02 9.83m0 4.92v9.83m0 4.92v9.83m.02 4.92v4.9l-.15 1.9-.44 1.82-.7 1.74m-3.65 4.27l-1.6 1-1.74.7-1.82.45h-5.2m-5.22.02l-10.4.03m-5.22 0l-10.42.03m-5.2 0l-10.42.04m-5.2 0l-5.22.02" stroke="#333" fill="none"/><path d="M1041.5 581.06h-.5v-1h.5z" stroke="#333" stroke-width=".05" fill="#333"/><path d="M1142.62 868.16l14.26-4.63v9.27z" stroke="#333" fill="#333"/><path d="M1041.5 580.56h4.9m4.9 0h9.8m4.9 0h9.82m4.9 0h9.8m4.9 0h9.82m4.9 0h9.8m4.9 0h9.8m4.92 0h9.8m4.9 0h9.8m4.9 0h9.82m4.9 0h9.8m4.9 0h9.8m4.92 0h4.9l1.88.15 1.83.45 1.75.72m4.26 3.64l1 1.62.7 1.74.45 1.83v5.24m0 5.26l.02 10.5m0 5.26l.02 10.5m0 5.27v10.5m0 5.26l.02 10.5m0 5.25l.02 10.5m0 5.27l.02 10.5m0 5.26v10.5m.02 5.27v10.5m0 5.26l.02 5.26-.15 1.88-.44 1.83-.7 1.74m-3.65 4.27l-1.6 1-1.74.7-1.82.45h-5.2m-5.22.02l-10.4.03m-5.22 0l-10.42.03m-5.2.02l-10.42.02m-5.2 0l-5.22.02" stroke="#333" fill="none"/><path d="M1041.5 581.06h-.5v-1h.5z" stroke="#333" stroke-width=".05" fill="#333"/><path d="M1142.62 744.56l14.26-4.63v9.27z" stroke="#333" fill="#333"/><path d="M778.5 744.56h-5.17m-5.16 0h-10.34m-5.16 0h-10.34m-5.16 0H732l-1.88.15-1.83.45-1.75.72m-4.26 3.64l-1 1.62-.7 1.74-.45 1.83v5.1m0 5.1l-.02 10.23m0 5.1v10.24m-.02 5.1v10.23m0 5.1v10.24m0 5.1l-.02 10.23m0 5.1l-.02 10.23m0 5.12v10.22m-.02 5.1v10.23m0 5.1l-.02 10.24m0 5.12v10.22m-.02 5.1v5.12l-.15 1.88-.44 1.83-.7 1.74m-3.65 4.27l-1.6 1-1.74.7-1.82.45-5.42.02m-5.4.02l-10.85.05m-5.4.04l-5.42.02" stroke="#333" fill="none"/><path d="M779 745.06h-.5v-1h.5z" stroke="#333" stroke-width=".05" fill="#333"/><path d="M662.62 935.36l14.26-4.63V940z" stroke="#333" fill="#333"/><path d="M778.5 868.16h-5.17m-5.16 0h-10.34m-5.16 0h-10.34m-5.16 0H732l-1.88.15-1.83.45-1.75.72m-4.26 3.64l-1 1.62-.7 1.74-.45 1.83-.02 5m-.02 5l-.02 10.02m0 5l-.05 10.03m0 5l-.03 5-.15 1.9-.44 1.82-.7 1.74m-3.65 4.27l-1.6 1-1.74.7-1.82.45-5.42.02m-5.4.02l-10.85.05m-5.4.04l-5.42.02" stroke="#333" fill="none"/><path d="M779 868.66h-.5v-1h.5z" stroke="#333" stroke-width=".05" fill="#333"/><path d="M662.62 935.36l14.26-4.63V940z" stroke="#333" fill="#333"/><path d="M778.5 995.64h-5.17m-5.16 0h-10.34m-5.16 0h-10.34m-5.16 0H732l-1.88-.15-1.83-.45-1.75-.72m-4.26-3.64l-1-1.6-.7-1.75-.45-1.83-.02-4.24m-.02-4.24l-.02-8.48m0-4.24l-.05-8.48m0-4.24l-.03-4.24-.15-1.87-.44-1.84-.7-1.74m-3.65-4.26l-1.6-1-1.74-.7-1.82-.45h-5.42m-5.4-.04l-10.85-.05m-5.4 0l-5.42-.04" stroke="#333" fill="none"/><path d="M779 996.14h-.5v-1h.5z" stroke="#333" stroke-width=".05" fill="#333"/><path d="M662.62 935.36l14.26-4.63V940z" stroke="#333" fill="#333"/><path d="M778.5 1124.56h-5.17m-5.16 0h-10.34m-5.16 0h-10.34m-5.16 0H732l-1.88-.14-1.83-.44-1.75-.72m-4.26-3.64l-1-1.6-.7-1.75-.45-1.83v-5.06m0-5.06l-.02-10.13m0-5.07V1079m-.02-5.06v-10.13m0-5.05v-10.13m0-5.06l-.02-10.13m0-5.06l-.02-10.12m0-5.07v-10.12m-.02-5.07v-10.13m0-5.07l-.02-10.12m0-5.06V957.5m-.02-5.07v-5.07l-.15-1.87-.44-1.84-.7-1.74m-3.65-4.26l-1.6-1-1.74-.7-1.82-.45h-5.42m-5.4-.04l-10.85-.05m-5.4 0l-5.42-.04" stroke="#333" fill="none"/><path d="M779 1125.06h-.5v-1h.5z" stroke="#333" stroke-width=".05" fill="#333"/><path d="M662.62 935.36l14.26-4.63V940z" stroke="#333" fill="#fff"/><path d="M480 420.84V828" stroke="#333" fill="none"/><path d="M480 391.17l14.85 14.85L480 421.17l-14.85-15.15z" stroke="#333" fill="#fff"/><path d="M480 842.74l-4.64-14.26h9.28z" stroke="#333" fill="#333"/><defs><path fill="#333" d="M156-25L96-89v-11l60-65h29v5l-59 66 60 64v5h-30zm-82 0L15-89v-11l59-65h29v5L44-94l59 64v5H74" id="X"/><path fill="#333" d="M24-231v-30h32v30H24zM24 0v-190h32V0H24" id="Y"/><path fill="#333" d="M117-194c89-4 53 116 60 194h-32v-121c0-31-8-49-39-48C34-167 62-67 57 0H25l-1-190h30c1 10-1 24 2 32 11-22 29-35 61-36" id="Z"/><path fill="#333" d="M59-47c-2 24 18 29 38 22v24C64 9 27 4 27-40v-127H5v-23h24l9-43h21v43h35v23H59v120" id="aa"/><path fill="#333" d="M100-194c63 0 86 42 84 106H49c0 40 14 67 53 68 26 1 43-12 49-29l28 8c-11 28-37 45-77 45C44 4 14-33 15-96c1-61 26-98 85-98zm52 81c6-60-76-77-97-28-3 7-6 17-6 28h103" id="ab"/><path fill="#333" d="M114-163C36-179 61-72 57 0H25l-1-190h30c1 12-1 29 2 39 6-27 23-49 58-41v29" id="ac"/><path fill="#333" d="M101-234c-31-9-42 10-38 44h38v23H63V0H32v-167H5v-23h27c-7-52 17-82 69-68v24" id="ad"/><path fill="#333" d="M141-36C126-15 110 5 73 4 37 3 15-17 15-53c-1-64 63-63 125-63 3-35-9-54-41-54-24 1-41 7-42 31l-33-3c5-37 33-52 76-52 45 0 72 20 72 64v82c-1 20 7 32 28 27v20c-31 9-61-2-59-35zM48-53c0 20 12 33 32 33 41-3 63-29 60-74-43 2-92-5-92 41" id="ae"/><path fill="#333" d="M96-169c-40 0-48 33-48 73s9 75 48 75c24 0 41-14 43-38l32 2c-6 37-31 61-74 61-59 0-76-41-82-99-10-93 101-131 147-64 4 7 5 14 7 22l-32 3c-4-21-16-35-41-35" id="af"/><path fill="#333" d="M126-25H97v-5l59-64-59-66v-5h29l60 65v11zm-82 0H15v-5l59-64-59-66v-5h29l59 65v11" id="ag"/><g id="a"><use transform="matrix(0.05,0,0,0.05,0,0)" xlink:href="#X"/><use transform="matrix(0.05,0,0,0.05,10,0)" xlink:href="#Y"/><use transform="matrix(0.05,0,0,0.05,13.949999999999998,0)" xlink:href="#Z"/><use transform="matrix(0.05,0,0,0.05,23.95,0)" xlink:href="#aa"/><use transform="matrix(0.05,0,0,0.05,28.950000000000003,0)" xlink:href="#ab"/><use transform="matrix(0.05,0,0,0.05,38.95,0)" xlink:href="#ac"/><use transform="matrix(0.05,0,0,0.05,44.900000000000006,0)" xlink:href="#ad"/><use transform="matrix(0.05,0,0,0.05,49.900000000000006,0)" xlink:href="#ae"/><use transform="matrix(0.05,0,0,0.05,59.900000000000006,0)" xlink:href="#af"/><use transform="matrix(0.05,0,0,0.05,68.9,0)" xlink:href="#ab"/><use transform="matrix(0.05,0,0,0.05,78.9,0)" xlink:href="#ag"/></g><path fill="#333" d="M169-182c-1-43-94-46-97-3 18 66 151 10 154 114 3 95-165 93-204 36-6-8-10-19-12-30l50-8c3 46 112 56 116 5-17-69-150-10-154-114-4-87 153-88 188-35 5 8 8 18 10 28" id="ah"/><path fill="#333" d="M110-194c64 0 96 36 96 99 0 64-35 99-97 99-61 0-95-36-95-99 0-62 34-99 96-99zm-1 164c35 0 45-28 45-65 0-40-10-65-43-65-34 0-45 26-45 65 0 36 10 65 43 65" id="ai"/><path fill="#333" d="M135-150c-39-12-60 13-60 57V0H25l-1-190h47c2 13-1 29 3 40 6-28 27-53 61-41v41" id="aj"/><path fill="#333" d="M115-3C79 11 28 4 28-45v-112H4v-33h27l15-45h31v45h36v33H77v99c-1 23 16 31 38 25v30" id="ak"/><path fill="#333" d="M133-34C117-15 103 5 69 4 32 3 11-16 11-54c-1-60 55-63 116-61 1-26-3-47-28-47-18 1-26 9-28 27l-52-2c7-38 36-58 82-57s74 22 75 68l1 82c-1 14 12 18 25 15v27c-30 8-71 5-69-32zm-48 3c29 0 43-24 42-57-32 0-66-3-65 30 0 17 8 27 23 27" id="al"/><path fill="#333" d="M185-48c-13 30-37 53-82 52C43 2 14-33 14-96s30-98 90-98c62 0 83 45 84 108H66c0 31 8 55 39 56 18 0 30-7 34-22zm-45-69c5-46-57-63-70-21-2 6-4 13-4 21h74" id="am"/><path fill="#333" d="M195-6C206 82 75 100 31 46c-4-6-6-13-8-21l49-6c3 16 16 24 34 25 40 0 42-37 40-79-11 22-30 35-61 35-53 0-70-43-70-97 0-56 18-96 73-97 30 0 46 14 59 34l2-30h47zm-90-29c32 0 41-27 41-63 0-35-9-62-40-62-32 0-39 29-40 63 0 36 9 62 39 62" id="an"/><path fill="#333" d="M123 10C108 53 80 86 19 72V37c35 8 53-11 59-39L3-190h52l48 148c12-52 28-100 44-148h51" id="ao"/><g id="b"><use transform="matrix(0.05,0,0,0.05,0,0)" xlink:href="#ah"/><use transform="matrix(0.05,0,0,0.05,12,0)" xlink:href="#ai"/><use transform="matrix(0.05,0,0,0.05,22.950000000000003,0)" xlink:href="#aj"/><use transform="matrix(0.05,0,0,0.05,29.950000000000003,0)" xlink:href="#ak"/><use transform="matrix(0.05,0,0,0.05,35.900000000000006,0)" xlink:href="#ah"/><use transform="matrix(0.05,0,0,0.05,47.900000000000006,0)" xlink:href="#ak"/><use transform="matrix(0.05,0,0,0.05,53.85,0)" xlink:href="#aj"/><use transform="matrix(0.05,0,0,0.05,60.85,0)" xlink:href="#al"/><use transform="matrix(0.05,0,0,0.05,70.85000000000001,0)" xlink:href="#ak"/><use transform="matrix(0.05,0,0,0.05,76.80000000000001,0)" xlink:href="#am"/><use transform="matrix(0.05,0,0,0.05,86.80000000000001,0)" xlink:href="#an"/><use transform="matrix(0.05,0,0,0.05,97.75000000000001,0)" xlink:href="#ao"/></g><path fill="#333" d="M84 4C-5 8 30-112 23-190h32v120c0 31 7 50 39 49 72-2 45-101 50-169h31l1 190h-30c-1-10 1-25-2-33-11 22-28 36-60 37" id="ap"/><path fill="#333" d="M135-143c-3-34-86-38-87 0 15 53 115 12 119 90S17 21 10-45l28-5c4 36 97 45 98 0-10-56-113-15-118-90-4-57 82-63 122-42 12 7 21 19 24 35" id="aq"/><path fill="#333" d="M100-194c62-1 85 37 85 99 1 63-27 99-86 99S16-35 15-95c0-66 28-99 85-99zM99-20c44 1 53-31 53-75 0-43-8-75-51-75s-53 32-53 75 10 74 51 75" id="ar"/><path fill="#333" d="M210-169c-67 3-38 105-44 169h-31v-121c0-29-5-50-35-48C34-165 62-65 56 0H25l-1-190h30c1 10-1 24 2 32 10-44 99-50 107 0 11-21 27-35 58-36 85-2 47 119 55 194h-31v-121c0-29-5-49-35-48" id="as"/><path fill="#333" d="M185-189c-5-48-123-54-124 2 14 75 158 14 163 119 3 78-121 87-175 55-17-10-28-26-33-46l33-7c5 56 141 63 141-1 0-78-155-14-162-118-5-82 145-84 179-34 5 7 8 16 11 25" id="at"/><path fill="#333" d="M87 75C49 33 22-17 22-94c0-76 28-126 65-167h31c-38 41-64 92-64 168S80 34 118 75H87" id="au"/><path fill="#333" d="M115-194c55 1 70 41 70 98S169 2 115 4C84 4 66-9 55-30l1 105H24l-1-265h31l2 30c10-21 28-34 59-34zm-8 174c40 0 45-34 45-75s-6-73-45-74c-42 0-51 32-51 76 0 43 10 73 51 73" id="av"/><path fill="#333" d="M24 0v-261h32V0H24" id="aw"/><path fill="#333" d="M33-154v-36h34v36H33zM33 0v-36h34V0H33" id="ax"/><g id="c"><use transform="matrix(0.05,0,0,0.05,0,0)" xlink:href="#af"/><use transform="matrix(0.05,0,0,0.05,9,0)" xlink:href="#ap"/><use transform="matrix(0.05,0,0,0.05,19,0)" xlink:href="#aq"/><use transform="matrix(0.05,0,0,0.05,28,0)" xlink:href="#aa"/><use transform="matrix(0.05,0,0,0.05,33,0)" xlink:href="#ar"/><use transform="matrix(0.05,0,0,0.05,43,0)" xlink:href="#as"/><use transform="matrix(0.05,0,0,0.05,57.95,0)" xlink:href="#at"/><use transform="matrix(0.05,0,0,0.05,69.95,0)" xlink:href="#ar"/><use transform="matrix(0.05,0,0,0.05,79.95,0)" xlink:href="#ac"/><use transform="matrix(0.05,0,0,0.05,85.9,0)" xlink:href="#aa"/><use transform="matrix(0.05,0,0,0.05,90.9,0)" xlink:href="#au"/><use transform="matrix(0.05,0,0,0.05,96.85000000000001,0)" xlink:href="#av"/><use transform="matrix(0.05,0,0,0.05,106.85000000000001,0)" xlink:href="#ab"/><use transform="matrix(0.05,0,0,0.05,116.85000000000001,0)" xlink:href="#ar"/><use transform="matrix(0.05,0,0,0.05,126.85000000000001,0)" xlink:href="#av"/><use transform="matrix(0.05,0,0,0.05,136.85000000000002,0)" xlink:href="#aw"/><use transform="matrix(0.05,0,0,0.05,140.8,0)" xlink:href="#ab"/><use transform="matrix(0.05,0,0,0.05,150.8,0)" xlink:href="#ax"/></g><path fill="#333" d="M30 0v-248h33v221h125V0H30" id="ay"/><path fill="#333" d="M18-100v-36l175-74v27L42-118l151 64v27" id="az"/><path fill="#333" d="M30-248c87 1 191-15 191 75 0 78-77 80-158 76V0H30v-248zm33 125c57 0 124 11 124-50 0-59-68-47-124-48v98" id="aA"/><path fill="#333" d="M18-27v-27l151-64-151-65v-27l175 74v36" id="aB"/><path fill="#333" d="M33-261c38 41 65 92 65 168S71 34 33 75H2C39 34 66-17 66-93S39-220 2-261h31" id="aC"/><g id="d"><use transform="matrix(0.05,0,0,0.05,0,0)" xlink:href="#ay"/><use transform="matrix(0.05,0,0,0.05,10,0)" xlink:href="#Y"/><use transform="matrix(0.05,0,0,0.05,13.949999999999998,0)" xlink:href="#aq"/><use transform="matrix(0.05,0,0,0.05,22.95,0)" xlink:href="#aa"/><use transform="matrix(0.05,0,0,0.05,27.950000000000003,0)" xlink:href="#az"/><use transform="matrix(0.05,0,0,0.05,38.45,0)" xlink:href="#aA"/><use transform="matrix(0.05,0,0,0.05,50.45,0)" xlink:href="#ab"/><use transform="matrix(0.05,0,0,0.05,60.45,0)" xlink:href="#ac"/><use transform="matrix(0.05,0,0,0.05,66.4,0)" xlink:href="#aq"/><use transform="matrix(0.05,0,0,0.05,75.4,0)" xlink:href="#ar"/><use transform="matrix(0.05,0,0,0.05,85.4,0)" xlink:href="#Z"/><use transform="matrix(0.05,0,0,0.05,95.4,0)" xlink:href="#aB"/><use transform="matrix(0.05,0,0,0.05,105.9,0)" xlink:href="#aC"/><use transform="matrix(0.05,0,0,0.05,111.85000000000001,0)" xlink:href="#ax"/></g><path fill="#333" d="M108 0H70L1-190h34L89-25l56-165h34" id="aD"/><path fill="#333" d="M85-194c31 0 48 13 60 33l-1-100h32l1 261h-30c-2-10 0-23-3-31C134-8 116 4 85 4 32 4 16-35 15-94c0-66 23-100 70-100zm9 24c-40 0-46 34-46 75 0 40 6 74 45 74 42 0 51-32 51-76 0-42-9-74-50-73" id="aE"/><g id="e"><use transform="matrix(0.05,0,0,0.05,0,0)" xlink:href="#aD"/><use transform="matrix(0.05,0,0,0.05,9,0)" xlink:href="#ar"/><use transform="matrix(0.05,0,0,0.05,19,0)" xlink:href="#Y"/><use transform="matrix(0.05,0,0,0.05,22.95,0)" xlink:href="#aE"/></g><path fill="#333" d="M24-248c93 1 206-16 204 79-1 75-69 88-152 82V0H24v-248zm52 121c47 0 100 7 100-41 0-47-54-39-100-39v80" id="aF"/><path fill="#333" d="M135-194c53 0 70 44 70 98 0 56-19 98-73 100-31 1-45-17-59-34 3 33 2 69 2 105H25l-1-265h48c2 10 0 23 3 31 11-24 29-35 60-35zM114-30c33 0 39-31 40-66 0-38-9-64-40-64-56 0-55 130 0 130" id="aG"/><path fill="#333" d="M25 0v-261h50V0H25" id="aH"/><g id="f"><use transform="matrix(0.05,0,0,0.05,0,0)" xlink:href="#aF"/><use transform="matrix(0.05,0,0,0.05,12,0)" xlink:href="#am"/><use transform="matrix(0.05,0,0,0.05,22,0)" xlink:href="#ai"/><use transform="matrix(0.05,0,0,0.05,32.95,0)" xlink:href="#aG"/><use transform="matrix(0.05,0,0,0.05,43.900000000000006,0)" xlink:href="#aH"/><use transform="matrix(0.05,0,0,0.05,48.900000000000006,0)" xlink:href="#am"/></g><path fill="#333" d="M16-82v-28h88v28H16" id="aI"/><use transform="matrix(0.05,0,0,0.05,0,0)" xlink:href="#aI" id="g"/><path fill="#333" d="M177-190C167-65 218 103 67 71c-23-6-38-20-44-43l32-5c15 47 100 32 89-28v-30C133-14 115 1 83 1 29 1 15-40 15-95c0-56 16-97 71-98 29-1 48 16 59 35 1-10 0-23 2-32h30zM94-22c36 0 50-32 50-73 0-42-14-75-50-75-39 0-46 34-46 75s6 73 46 73" id="aJ"/><path fill="#333" d="M179-190L93 31C79 59 56 82 12 73V49c39 6 53-20 64-50L1-190h34L92-34l54-156h33" id="aK"/><g id="h"><use transform="matrix(0.05,0,0,0.05,0,0)" xlink:href="#aq"/><use transform="matrix(0.05,0,0,0.05,9,0)" xlink:href="#ar"/><use transform="matrix(0.05,0,0,0.05,19,0)" xlink:href="#ac"/><use transform="matrix(0.05,0,0,0.05,24.95,0)" xlink:href="#aa"/><use transform="matrix(0.05,0,0,0.05,29.950000000000003,0)" xlink:href="#at"/><use transform="matrix(0.05,0,0,0.05,41.95,0)" xlink:href="#aa"/><use transform="matrix(0.05,0,0,0.05,46.95,0)" xlink:href="#ac"/><use transform="matrix(0.05,0,0,0.05,52.900000000000006,0)" xlink:href="#ae"/><use transform="matrix(0.05,0,0,0.05,62.900000000000006,0)" xlink:href="#aa"/><use transform="matrix(0.05,0,0,0.05,67.9,0)" xlink:href="#ab"/><use transform="matrix(0.05,0,0,0.05,77.9,0)" xlink:href="#aJ"/><use transform="matrix(0.05,0,0,0.05,87.9,0)" xlink:href="#aK"/><use transform="matrix(0.05,0,0,0.05,96.9,0)" xlink:href="#ax"/></g><g id="i"><use transform="matrix(0.05,0,0,0.05,0,0)" xlink:href="#at"/><use transform="matrix(0.05,0,0,0.05,12,0)" xlink:href="#ar"/><use transform="matrix(0.05,0,0,0.05,22,0)" xlink:href="#ac"/><use transform="matrix(0.05,0,0,0.05,27.950000000000003,0)" xlink:href="#aa"/><use transform="matrix(0.05,0,0,0.05,32.95,0)" xlink:href="#at"/><use transform="matrix(0.05,0,0,0.05,44.95,0)" xlink:href="#aa"/><use transform="matrix(0.05,0,0,0.05,49.95,0)" xlink:href="#ac"/><use transform="matrix(0.05,0,0,0.05,55.900000000000006,0)" xlink:href="#ae"/><use transform="matrix(0.05,0,0,0.05,65.9,0)" xlink:href="#aa"/><use transform="matrix(0.05,0,0,0.05,70.9,0)" xlink:href="#ab"/><use transform="matrix(0.05,0,0,0.05,80.9,0)" xlink:href="#aJ"/><use transform="matrix(0.05,0,0,0.05,90.9,0)" xlink:href="#aK"/></g><path fill="#333" d="M115-194c53 0 69 39 70 98 0 66-23 100-70 100C84 3 66-7 56-30L54 0H23l1-261h32v101c10-23 28-34 59-34zm-8 174c40 0 45-34 45-75 0-40-5-75-45-74-42 0-51 32-51 76 0 43 10 73 51 73" id="aL"/><g id="j"><use transform="matrix(0.05,0,0,0.05,0,0)" xlink:href="#as"/><use transform="matrix(0.05,0,0,0.05,14.950000000000001,0)" xlink:href="#ab"/><use transform="matrix(0.05,0,0,0.05,24.950000000000003,0)" xlink:href="#as"/><use transform="matrix(0.05,0,0,0.05,39.900000000000006,0)" xlink:href="#aL"/><use transform="matrix(0.05,0,0,0.05,49.900000000000006,0)" xlink:href="#ab"/><use transform="matrix(0.05,0,0,0.05,59.900000000000006,0)" xlink:href="#ac"/><use transform="matrix(0.05,0,0,0.05,65.85000000000001,0)" xlink:href="#aq"/><use transform="matrix(0.05,0,0,0.05,74.85000000000001,0)" xlink:href="#ax"/></g><g id="k"><use transform="matrix(0.05,0,0,0.05,0,0)" xlink:href="#ay"/><use transform="matrix(0.05,0,0,0.05,10,0)" xlink:href="#Y"/><use transform="matrix(0.05,0,0,0.05,13.949999999999998,0)" xlink:href="#aq"/><use transform="matrix(0.05,0,0,0.05,22.95,0)" xlink:href="#aa"/><use transform="matrix(0.05,0,0,0.05,27.950000000000003,0)" xlink:href="#az"/><use transform="matrix(0.05,0,0,0.05,38.45,0)" xlink:href="#aA"/><use transform="matrix(0.05,0,0,0.05,50.45,0)" xlink:href="#ab"/><use transform="matrix(0.05,0,0,0.05,60.45,0)" xlink:href="#ac"/><use transform="matrix(0.05,0,0,0.05,66.4,0)" xlink:href="#aq"/><use transform="matrix(0.05,0,0,0.05,75.4,0)" xlink:href="#ar"/><use transform="matrix(0.05,0,0,0.05,85.4,0)" xlink:href="#Z"/><use transform="matrix(0.05,0,0,0.05,95.4,0)" xlink:href="#aB"/></g><path fill="#333" d="M118-107v75H92v-75H18v-26h74v-75h26v75h74v26h-74" id="aM"/><use transform="matrix(0.05,0,0,0.05,0,0)" xlink:href="#aM" id="l"/><g id="m"><use transform="matrix(0.05,0,0,0.05,0,0)" xlink:href="#aA"/><use transform="matrix(0.05,0,0,0.05,12,0)" xlink:href="#ab"/><use transform="matrix(0.05,0,0,0.05,22,0)" xlink:href="#ar"/><use transform="matrix(0.05,0,0,0.05,32,0)" xlink:href="#av"/><use transform="matrix(0.05,0,0,0.05,42,0)" xlink:href="#aw"/><use transform="matrix(0.05,0,0,0.05,45.95,0)" xlink:href="#ab"/><use transform="matrix(0.05,0,0,0.05,55.95,0)" xlink:href="#au"/><use transform="matrix(0.05,0,0,0.05,61.900000000000006,0)" xlink:href="#aC"/></g><g id="n"><use transform="matrix(0.05,0,0,0.05,0,0)" xlink:href="#aq"/><use transform="matrix(0.05,0,0,0.05,9,0)" xlink:href="#ab"/><use transform="matrix(0.05,0,0,0.05,19,0)" xlink:href="#aa"/><use transform="matrix(0.05,0,0,0.05,24,0)" xlink:href="#at"/><use transform="matrix(0.05,0,0,0.05,36,0)" xlink:href="#ar"/><use transform="matrix(0.05,0,0,0.05,46,0)" xlink:href="#ac"/><use transform="matrix(0.05,0,0,0.05,51.95,0)" xlink:href="#aa"/><use transform="matrix(0.05,0,0,0.05,56.95,0)" xlink:href="#at"/><use transform="matrix(0.05,0,0,0.05,68.95,0)" xlink:href="#aa"/><use transform="matrix(0.05,0,0,0.05,73.95,0)" xlink:href="#ac"/><use transform="matrix(0.05,0,0,0.05,79.9,0)" xlink:href="#ae"/><use transform="matrix(0.05,0,0,0.05,89.9,0)" xlink:href="#aa"/><use transform="matrix(0.05,0,0,0.05,94.9,0)" xlink:href="#ab"/><use transform="matrix(0.05,0,0,0.05,104.9,0)" xlink:href="#aJ"/><use transform="matrix(0.05,0,0,0.05,114.9,0)" xlink:href="#aK"/><use transform="matrix(0.05,0,0,0.05,123.9,0)" xlink:href="#au"/><use transform="matrix(0.05,0,0,0.05,129.85,0)" xlink:href="#aq"/><use transform="matrix(0.05,0,0,0.05,138.85,0)" xlink:href="#ar"/><use transform="matrix(0.05,0,0,0.05,148.85,0)" xlink:href="#ac"/><use transform="matrix(0.05,0,0,0.05,154.79999999999998,0)" xlink:href="#aa"/><use transform="matrix(0.05,0,0,0.05,159.79999999999998,0)" xlink:href="#at"/><use transform="matrix(0.05,0,0,0.05,171.79999999999998,0)" xlink:href="#aa"/><use transform="matrix(0.05,0,0,0.05,176.79999999999998,0)" xlink:href="#ac"/><use transform="matrix(0.05,0,0,0.05,182.74999999999997,0)" xlink:href="#ae"/><use transform="matrix(0.05,0,0,0.05,192.74999999999997,0)" xlink:href="#aa"/><use transform="matrix(0.05,0,0,0.05,197.74999999999997,0)" xlink:href="#ab"/><use transform="matrix(0.05,0,0,0.05,207.74999999999997,0)" xlink:href="#aJ"/><use transform="matrix(0.05,0,0,0.05,217.74999999999997,0)" xlink:href="#aK"/><use transform="matrix(0.05,0,0,0.05,226.74999999999997,0)" xlink:href="#ax"/><use transform="matrix(0.05,0,0,0.05,231.74999999999997,0)" xlink:href="#at"/><use transform="matrix(0.05,0,0,0.05,243.74999999999997,0)" xlink:href="#ar"/><use transform="matrix(0.05,0,0,0.05,253.74999999999997,0)" xlink:href="#ac"/><use transform="matrix(0.05,0,0,0.05,259.7,0)" xlink:href="#aa"/><use transform="matrix(0.05,0,0,0.05,264.7,0)" xlink:href="#at"/><use transform="matrix(0.05,0,0,0.05,276.7,0)" xlink:href="#aa"/><use transform="matrix(0.05,0,0,0.05,281.7,0)" xlink:href="#ac"/><use transform="matrix(0.05,0,0,0.05,287.65,0)" xlink:href="#ae"/><use transform="matrix(0.05,0,0,0.05,297.65,0)" xlink:href="#aa"/><use transform="matrix(0.05,0,0,0.05,302.65,0)" xlink:href="#ab"/><use transform="matrix(0.05,0,0,0.05,312.65,0)" xlink:href="#aJ"/><use transform="matrix(0.05,0,0,0.05,322.65,0)" xlink:href="#aK"/><use transform="matrix(0.05,0,0,0.05,331.65,0)" xlink:href="#aC"/><use transform="matrix(0.05,0,0,0.05,337.59999999999997,0)" xlink:href="#ax"/></g><g id="o"><use transform="matrix(0.05,0,0,0.05,0,0)" xlink:href="#aD"/><use transform="matrix(0.05,0,0,0.05,9,0)" xlink:href="#ar"/><use transform="matrix(0.05,0,0,0.05,19,0)" xlink:href="#Y"/><use transform="matrix(0.05,0,0,0.05,22.95,0)" xlink:href="#aE"/></g><path fill="#333" d="M240 0l2-218c-23 76-54 145-80 218h-23L58-218 59 0H30v-248h44l77 211c21-75 51-140 76-211h43V0h-30" id="aN"/><g id="p"><use transform="matrix(0.05,0,0,0.05,0,0)" xlink:href="#ae"/><use transform="matrix(0.05,0,0,0.05,10,0)" xlink:href="#aE"/><use transform="matrix(0.05,0,0,0.05,20,0)" xlink:href="#aE"/><use transform="matrix(0.05,0,0,0.05,30,0)" xlink:href="#aN"/><use transform="matrix(0.05,0,0,0.05,44.95,0)" xlink:href="#ab"/><use transform="matrix(0.05,0,0,0.05,54.95,0)" xlink:href="#as"/><use transform="matrix(0.05,0,0,0.05,69.9,0)" xlink:href="#aL"/><use transform="matrix(0.05,0,0,0.05,79.9,0)" xlink:href="#ab"/><use transform="matrix(0.05,0,0,0.05,89.9,0)" xlink:href="#ac"/><use transform="matrix(0.05,0,0,0.05,95.85000000000001,0)" xlink:href="#au"/><use transform="matrix(0.05,0,0,0.05,101.80000000000001,0)" xlink:href="#aA"/><use transform="matrix(0.05,0,0,0.05,113.80000000000001,0)" xlink:href="#ab"/><use transform="matrix(0.05,0,0,0.05,123.80000000000001,0)" xlink:href="#ac"/><use transform="matrix(0.05,0,0,0.05,129.75,0)" xlink:href="#aq"/><use transform="matrix(0.05,0,0,0.05,138.75,0)" xlink:href="#ar"/><use transform="matrix(0.05,0,0,0.05,148.75,0)" xlink:href="#Z"/><use transform="matrix(0.05,0,0,0.05,158.75,0)" xlink:href="#ax"/></g><g id="q"><use transform="matrix(0.05,0,0,0.05,0,0)" xlink:href="#av"/><use transform="matrix(0.05,0,0,0.05,10,0)" xlink:href="#aC"/><use transform="matrix(0.05,0,0,0.05,15.949999999999998,0)" xlink:href="#ax"/></g><g id="r"><use transform="matrix(0.05,0,0,0.05,0,0)" xlink:href="#av"/><use transform="matrix(0.05,0,0,0.05,10,0)" xlink:href="#ac"/><use transform="matrix(0.05,0,0,0.05,15.949999999999998,0)" xlink:href="#Y"/><use transform="matrix(0.05,0,0,0.05,19.9,0)" xlink:href="#Z"/><use transform="matrix(0.05,0,0,0.05,29.899999999999995,0)" xlink:href="#aa"/><use transform="matrix(0.05,0,0,0.05,34.9,0)" xlink:href="#au"/><use transform="matrix(0.05,0,0,0.05,40.85,0)" xlink:href="#aA"/><use transform="matrix(0.05,0,0,0.05,52.85,0)" xlink:href="#ac"/><use transform="matrix(0.05,0,0,0.05,58.800000000000004,0)" xlink:href="#Y"/><use transform="matrix(0.05,0,0,0.05,62.75,0)" xlink:href="#Z"/><use transform="matrix(0.05,0,0,0.05,72.75,0)" xlink:href="#aa"/><use transform="matrix(0.05,0,0,0.05,77.75,0)" xlink:href="#at"/><use transform="matrix(0.05,0,0,0.05,89.75,0)" xlink:href="#aa"/><use transform="matrix(0.05,0,0,0.05,94.75,0)" xlink:href="#ac"/><use transform="matrix(0.05,0,0,0.05,100.7,0)" xlink:href="#ab"/><use transform="matrix(0.05,0,0,0.05,110.7,0)" xlink:href="#ae"/><use transform="matrix(0.05,0,0,0.05,120.7,0)" xlink:href="#as"/></g><g id="s"><use transform="matrix(0.05,0,0,0.05,0,0)" xlink:href="#ar"/><use transform="matrix(0.05,0,0,0.05,10,0)" xlink:href="#ap"/><use transform="matrix(0.05,0,0,0.05,20,0)" xlink:href="#aa"/><use transform="matrix(0.05,0,0,0.05,25,0)" xlink:href="#aC"/><use transform="matrix(0.05,0,0,0.05,30.950000000000003,0)" xlink:href="#ax"/></g><path fill="#333" d="M230 0l2-204L168 0h-37L68-204 70 0H24v-248h70l56 185 57-185h69V0h-46" id="aO"/><path fill="#333" d="M25-224v-37h50v37H25zM25 0v-190h50V0H25" id="aP"/><path fill="#333" d="M135-194c87-1 58 113 63 194h-50c-7-57 23-157-34-157-59 0-34 97-39 157H25l-1-190h47c2 12-1 28 3 38 12-26 28-41 61-42" id="aQ"/><g id="t"><use transform="matrix(0.05,0,0,0.05,0,0)" xlink:href="#aO"/><use transform="matrix(0.05,0,0,0.05,14.950000000000001,0)" xlink:href="#al"/><use transform="matrix(0.05,0,0,0.05,24.950000000000003,0)" xlink:href="#aP"/><use transform="matrix(0.05,0,0,0.05,29.950000000000003,0)" xlink:href="#aQ"/></g><g id="u"><use transform="matrix(0.05,0,0,0.05,0,0)" xlink:href="#aM"/><path fill="#333" d="M-.9 1.25h17.3v1.32H-.9z"/></g><g id="v"><use transform="matrix(0.05,0,0,0.05,0,0)" xlink:href="#as"/><use transform="matrix(0.05,0,0,0.05,14.950000000000001,0)" xlink:href="#ae"/><use transform="matrix(0.05,0,0,0.05,24.950000000000003,0)" xlink:href="#Y"/><use transform="matrix(0.05,0,0,0.05,28.900000000000002,0)" xlink:href="#Z"/><use transform="matrix(0.05,0,0,0.05,38.900000000000006,0)" xlink:href="#au"/><use transform="matrix(0.05,0,0,0.05,44.85000000000001,0)" xlink:href="#ae"/><use transform="matrix(0.05,0,0,0.05,54.85,0)" xlink:href="#ac"/><use transform="matrix(0.05,0,0,0.05,60.80000000000001,0)" xlink:href="#aJ"/><use transform="matrix(0.05,0,0,0.05,70.80000000000001,0)" xlink:href="#aq"/><use transform="matrix(0.05,0,0,0.05,79.80000000000001,0)" xlink:href="#ax"/><path fill="#333" d="M-.9 1.25h91.6v1.32H-.9z"/></g><path fill="#333" d="M26 75v-336h71v23H56V52h41v23H26" id="aR"/><path fill="#333" d="M3 75V52h41v-290H3v-23h71V75H3" id="aS"/><g id="w"><use transform="matrix(0.05,0,0,0.05,0,0)" xlink:href="#at"/><use transform="matrix(0.05,0,0,0.05,12,0)" xlink:href="#aa"/><use transform="matrix(0.05,0,0,0.05,17,0)" xlink:href="#ac"/><use transform="matrix(0.05,0,0,0.05,22.95,0)" xlink:href="#Y"/><use transform="matrix(0.05,0,0,0.05,26.899999999999995,0)" xlink:href="#Z"/><use transform="matrix(0.05,0,0,0.05,36.9,0)" xlink:href="#aJ"/><use transform="matrix(0.05,0,0,0.05,46.9,0)" xlink:href="#aR"/><use transform="matrix(0.05,0,0,0.05,51.900000000000006,0)" xlink:href="#aS"/><use transform="matrix(0.05,0,0,0.05,56.900000000000006,0)" xlink:href="#aC"/><use transform="matrix(0.05,0,0,0.05,62.85,0)" xlink:href="#ax"/><path fill="#333" d="M-.9 1.25h74.65v1.32H-.9z"/></g><g id="x"><use transform="matrix(0.05,0,0,0.05,0,0)" xlink:href="#aD"/><use transform="matrix(0.05,0,0,0.05,9,0)" xlink:href="#ar"/><use transform="matrix(0.05,0,0,0.05,19,0)" xlink:href="#Y"/><use transform="matrix(0.05,0,0,0.05,22.95,0)" xlink:href="#aE"/><path fill="#333" d="M-.9 1.25h34.75v1.32H-.9z"/></g><path fill="#333" d="M137-138c1-29-70-34-71-4 15 46 118 7 119 86 1 83-164 76-172 9l43-7c4 19 20 25 44 25 33 8 57-30 24-41C81-84 22-81 20-136c-2-80 154-74 161-7" id="aT"/><g id="y"><use transform="matrix(0.05,0,0,0.05,0,0)" xlink:href="#aF"/><use transform="matrix(0.05,0,0,0.05,12,0)" xlink:href="#am"/><use transform="matrix(0.05,0,0,0.05,22,0)" xlink:href="#aj"/><use transform="matrix(0.05,0,0,0.05,29,0)" xlink:href="#aT"/><use transform="matrix(0.05,0,0,0.05,39,0)" xlink:href="#ai"/><use transform="matrix(0.05,0,0,0.05,49.95,0)" xlink:href="#aQ"/></g><use transform="matrix(0.05,0,0,0.05,0,0)" xlink:href="#aI" id="A"/><g id="B"><use transform="matrix(0.05,0,0,0.05,0,0)" xlink:href="#Z"/><use transform="matrix(0.05,0,0,0.05,10,0)" xlink:href="#ae"/><use transform="matrix(0.05,0,0,0.05,20,0)" xlink:href="#as"/><use transform="matrix(0.05,0,0,0.05,34.95,0)" xlink:href="#ab"/><use transform="matrix(0.05,0,0,0.05,44.95,0)" xlink:href="#ax"/></g><g id="C"><use transform="matrix(0.05,0,0,0.05,0,0)" xlink:href="#at"/><use transform="matrix(0.05,0,0,0.05,12,0)" xlink:href="#aa"/><use transform="matrix(0.05,0,0,0.05,17,0)" xlink:href="#ac"/><use transform="matrix(0.05,0,0,0.05,22.95,0)" xlink:href="#Y"/><use transform="matrix(0.05,0,0,0.05,26.899999999999995,0)" xlink:href="#Z"/><use transform="matrix(0.05,0,0,0.05,36.9,0)" xlink:href="#aJ"/></g><g id="D"><use transform="matrix(0.05,0,0,0.05,0,0)" xlink:href="#ae"/><use transform="matrix(0.05,0,0,0.05,10,0)" xlink:href="#aJ"/><use transform="matrix(0.05,0,0,0.05,20,0)" xlink:href="#ab"/><use transform="matrix(0.05,0,0,0.05,30,0)" xlink:href="#ax"/></g><path fill="#333" d="M33 0v-248h34V0H33" id="aU"/><g id="E"><use transform="matrix(0.05,0,0,0.05,0,0)" xlink:href="#aU"/><use transform="matrix(0.05,0,0,0.05,5,0)" xlink:href="#Z"/><use transform="matrix(0.05,0,0,0.05,15,0)" xlink:href="#aa"/><use transform="matrix(0.05,0,0,0.05,20,0)" xlink:href="#ab"/><use transform="matrix(0.05,0,0,0.05,30,0)" xlink:href="#aJ"/><use transform="matrix(0.05,0,0,0.05,40,0)" xlink:href="#ab"/><use transform="matrix(0.05,0,0,0.05,50,0)" xlink:href="#ac"/></g><path fill="#333" d="M106-169C34-169 62-67 57 0H25v-261h32l-1 103c12-21 28-36 61-36 89 0 53 116 60 194h-32v-121c2-32-8-49-39-48" id="aV"/><g id="F"><use transform="matrix(0.05,0,0,0.05,0,0)" xlink:href="#aV"/><use transform="matrix(0.05,0,0,0.05,10,0)" xlink:href="#ab"/><use transform="matrix(0.05,0,0,0.05,20,0)" xlink:href="#Y"/><use transform="matrix(0.05,0,0,0.05,23.95,0)" xlink:href="#aJ"/><use transform="matrix(0.05,0,0,0.05,33.95,0)" xlink:href="#aV"/><use transform="matrix(0.05,0,0,0.05,43.95,0)" xlink:href="#aa"/><use transform="matrix(0.05,0,0,0.05,48.95,0)" xlink:href="#ax"/></g><path fill="#333" d="M206 0h-36l-40-164L89 0H53L-1-190h32L70-26l43-164h34l41 164 42-164h31" id="aW"/><g id="G"><use transform="matrix(0.05,0,0,0.05,0,0)" xlink:href="#aW"/><use transform="matrix(0.05,0,0,0.05,12.950000000000001,0)" xlink:href="#ab"/><use transform="matrix(0.05,0,0,0.05,22.950000000000003,0)" xlink:href="#Y"/><use transform="matrix(0.05,0,0,0.05,26.900000000000002,0)" xlink:href="#aJ"/><use transform="matrix(0.05,0,0,0.05,36.900000000000006,0)" xlink:href="#aV"/><use transform="matrix(0.05,0,0,0.05,46.900000000000006,0)" xlink:href="#aa"/><use transform="matrix(0.05,0,0,0.05,51.900000000000006,0)" xlink:href="#ax"/></g><g id="H"><use transform="matrix(0.05,0,0,0.05,0,0)" xlink:href="#aU"/><use transform="matrix(0.05,0,0,0.05,5,0)" xlink:href="#Z"/><use transform="matrix(0.05,0,0,0.05,15,0)" xlink:href="#aa"/><use transform="matrix(0.05,0,0,0.05,20,0)" xlink:href="#ab"/><use transform="matrix(0.05,0,0,0.05,30,0)" xlink:href="#aJ"/><use transform="matrix(0.05,0,0,0.05,40,0)" xlink:href="#ab"/><use transform="matrix(0.05,0,0,0.05,50,0)" xlink:href="#ac"/></g><path fill="#333" d="M190 0L58-211 59 0H30v-248h39L202-35l-2-213h31V0h-41" id="aX"/><g id="I"><use transform="matrix(0.05,0,0,0.05,0,0)" xlink:href="#aJ"/><use transform="matrix(0.05,0,0,0.05,10,0)" xlink:href="#ab"/><use transform="matrix(0.05,0,0,0.05,20,0)" xlink:href="#aa"/><use transform="matrix(0.05,0,0,0.05,25,0)" xlink:href="#aX"/><use transform="matrix(0.05,0,0,0.05,37.95,0)" xlink:href="#ae"/><use transform="matrix(0.05,0,0,0.05,47.95,0)" xlink:href="#as"/><use transform="matrix(0.05,0,0,0.05,62.900000000000006,0)" xlink:href="#ab"/><use transform="matrix(0.05,0,0,0.05,72.9,0)" xlink:href="#au"/><use transform="matrix(0.05,0,0,0.05,78.85000000000001,0)" xlink:href="#aC"/><use transform="matrix(0.05,0,0,0.05,84.80000000000001,0)" xlink:href="#ax"/></g><g id="J"><use transform="matrix(0.05,0,0,0.05,0,0)" xlink:href="#at"/><use transform="matrix(0.05,0,0,0.05,12,0)" xlink:href="#aa"/><use transform="matrix(0.05,0,0,0.05,17,0)" xlink:href="#ac"/><use transform="matrix(0.05,0,0,0.05,22.95,0)" xlink:href="#Y"/><use transform="matrix(0.05,0,0,0.05,26.899999999999995,0)" xlink:href="#Z"/><use transform="matrix(0.05,0,0,0.05,36.9,0)" xlink:href="#aJ"/></g><g id="K"><use transform="matrix(0.05,0,0,0.05,0,0)" xlink:href="#aq"/><use transform="matrix(0.05,0,0,0.05,9,0)" xlink:href="#ab"/><use transform="matrix(0.05,0,0,0.05,19,0)" xlink:href="#aa"/><use transform="matrix(0.05,0,0,0.05,24,0)" xlink:href="#aX"/><use transform="matrix(0.05,0,0,0.05,36.95,0)" xlink:href="#ae"/><use transform="matrix(0.05,0,0,0.05,46.95,0)" xlink:href="#as"/><use transform="matrix(0.05,0,0,0.05,61.900000000000006,0)" xlink:href="#ab"/><use transform="matrix(0.05,0,0,0.05,71.9,0)" xlink:href="#au"/><use transform="matrix(0.05,0,0,0.05,77.85000000000001,0)" xlink:href="#Z"/><use transform="matrix(0.05,0,0,0.05,87.85000000000001,0)" xlink:href="#ae"/><use transform="matrix(0.05,0,0,0.05,97.85000000000001,0)" xlink:href="#as"/><use transform="matrix(0.05,0,0,0.05,112.80000000000001,0)" xlink:href="#ab"/><use transform="matrix(0.05,0,0,0.05,122.80000000000001,0)" xlink:href="#ax"/></g><g id="L"><use transform="matrix(0.05,0,0,0.05,0,0)" xlink:href="#at"/><use transform="matrix(0.05,0,0,0.05,12,0)" xlink:href="#aa"/><use transform="matrix(0.05,0,0,0.05,17,0)" xlink:href="#ac"/><use transform="matrix(0.05,0,0,0.05,22.95,0)" xlink:href="#Y"/><use transform="matrix(0.05,0,0,0.05,26.899999999999995,0)" xlink:href="#Z"/><use transform="matrix(0.05,0,0,0.05,36.9,0)" xlink:href="#aJ"/><use transform="matrix(0.05,0,0,0.05,46.9,0)" xlink:href="#aC"/><use transform="matrix(0.05,0,0,0.05,52.85,0)" xlink:href="#ax"/></g><path fill="#333" d="M205 0l-28-72H64L36 0H1l101-248h38L239 0h-34zm-38-99l-47-123c-12 45-31 82-46 123h93" id="aY"/><g id="M"><use transform="matrix(0.05,0,0,0.05,0,0)" xlink:href="#aJ"/><use transform="matrix(0.05,0,0,0.05,10,0)" xlink:href="#ab"/><use transform="matrix(0.05,0,0,0.05,20,0)" xlink:href="#aa"/><use transform="matrix(0.05,0,0,0.05,25,0)" xlink:href="#aY"/><use transform="matrix(0.05,0,0,0.05,37,0)" xlink:href="#aJ"/><use transform="matrix(0.05,0,0,0.05,47,0)" xlink:href="#ab"/><use transform="matrix(0.05,0,0,0.05,57,0)" xlink:href="#au"/><use transform="matrix(0.05,0,0,0.05,62.95,0)" xlink:href="#aC"/><use transform="matrix(0.05,0,0,0.05,68.9,0)" xlink:href="#ax"/></g><g id="N"><use transform="matrix(0.05,0,0,0.05,0,0)" xlink:href="#aq"/><use transform="matrix(0.05,0,0,0.05,9,0)" xlink:href="#ab"/><use transform="matrix(0.05,0,0,0.05,19,0)" xlink:href="#aa"/><use transform="matrix(0.05,0,0,0.05,24,0)" xlink:href="#aY"/><use transform="matrix(0.05,0,0,0.05,36,0)" xlink:href="#aJ"/><use transform="matrix(0.05,0,0,0.05,46,0)" xlink:href="#ab"/><use transform="matrix(0.05,0,0,0.05,56,0)" xlink:href="#au"/><use transform="matrix(0.05,0,0,0.05,61.95,0)" xlink:href="#ae"/><use transform="matrix(0.05,0,0,0.05,71.95,0)" xlink:href="#aJ"/><use transform="matrix(0.05,0,0,0.05,81.95,0)" xlink:href="#ab"/><use transform="matrix(0.05,0,0,0.05,91.95,0)" xlink:href="#ax"/></g><g id="O"><use transform="matrix(0.05,0,0,0.05,0,0)" xlink:href="#aU"/><use transform="matrix(0.05,0,0,0.05,5,0)" xlink:href="#Z"/><use transform="matrix(0.05,0,0,0.05,15,0)" xlink:href="#aa"/><use transform="matrix(0.05,0,0,0.05,20,0)" xlink:href="#ab"/><use transform="matrix(0.05,0,0,0.05,30,0)" xlink:href="#aJ"/><use transform="matrix(0.05,0,0,0.05,40,0)" xlink:href="#ab"/><use transform="matrix(0.05,0,0,0.05,50,0)" xlink:href="#ac"/><use transform="matrix(0.05,0,0,0.05,55.95,0)" xlink:href="#aC"/><use transform="matrix(0.05,0,0,0.05,61.900000000000006,0)" xlink:href="#ax"/></g><path fill="#333" d="M197 0v-115H63V0H30v-248h33v105h134v-105h34V0h-34" id="aZ"/><g id="P"><use transform="matrix(0.05,0,0,0.05,0,0)" xlink:href="#aJ"/><use transform="matrix(0.05,0,0,0.05,10,0)" xlink:href="#ab"/><use transform="matrix(0.05,0,0,0.05,20,0)" xlink:href="#aa"/><use transform="matrix(0.05,0,0,0.05,25,0)" xlink:href="#aZ"/><use transform="matrix(0.05,0,0,0.05,37.95,0)" xlink:href="#ab"/><use transform="matrix(0.05,0,0,0.05,47.95,0)" xlink:href="#Y"/><use transform="matrix(0.05,0,0,0.05,51.900000000000006,0)" xlink:href="#aJ"/><use transform="matrix(0.05,0,0,0.05,61.900000000000006,0)" xlink:href="#aV"/><use transform="matrix(0.05,0,0,0.05,71.9,0)" xlink:href="#aa"/><use transform="matrix(0.05,0,0,0.05,76.9,0)" xlink:href="#au"/><use transform="matrix(0.05,0,0,0.05,82.85000000000001,0)" xlink:href="#aC"/><use transform="matrix(0.05,0,0,0.05,88.80000000000001,0)" xlink:href="#ax"/></g><g id="Q"><use transform="matrix(0.05,0,0,0.05,0,0)" xlink:href="#aq"/><use transform="matrix(0.05,0,0,0.05,9,0)" xlink:href="#ab"/><use transform="matrix(0.05,0,0,0.05,19,0)" xlink:href="#aa"/><use transform="matrix(0.05,0,0,0.05,24,0)" xlink:href="#aZ"/><use transform="matrix(0.05,0,0,0.05,36.95,0)" xlink:href="#ab"/><use transform="matrix(0.05,0,0,0.05,46.95,0)" xlink:href="#Y"/><use transform="matrix(0.05,0,0,0.05,50.900000000000006,0)" xlink:href="#aJ"/><use transform="matrix(0.05,0,0,0.05,60.900000000000006,0)" xlink:href="#aV"/><use transform="matrix(0.05,0,0,0.05,70.9,0)" xlink:href="#aa"/><use transform="matrix(0.05,0,0,0.05,75.9,0)" xlink:href="#au"/><use transform="matrix(0.05,0,0,0.05,81.85000000000001,0)" xlink:href="#aV"/><use transform="matrix(0.05,0,0,0.05,91.85000000000001,0)" xlink:href="#ab"/><use transform="matrix(0.05,0,0,0.05,101.85000000000001,0)" xlink:href="#Y"/><use transform="matrix(0.05,0,0,0.05,105.80000000000001,0)" xlink:href="#aJ"/><use transform="matrix(0.05,0,0,0.05,115.80000000000001,0)" xlink:href="#aV"/><use transform="matrix(0.05,0,0,0.05,125.80000000000001,0)" xlink:href="#aa"/><use transform="matrix(0.05,0,0,0.05,130.8,0)" xlink:href="#ax"/></g><g id="R"><use transform="matrix(0.05,0,0,0.05,0,0)" xlink:href="#aJ"/><use transform="matrix(0.05,0,0,0.05,10,0)" xlink:href="#ab"/><use transform="matrix(0.05,0,0,0.05,20,0)" xlink:href="#aa"/><use transform="matrix(0.05,0,0,0.05,25,0)" xlink:href="#aW"/><use transform="matrix(0.05,0,0,0.05,37.95,0)" xlink:href="#ab"/><use transform="matrix(0.05,0,0,0.05,47.95,0)" xlink:href="#Y"/><use transform="matrix(0.05,0,0,0.05,51.900000000000006,0)" xlink:href="#aJ"/><use transform="matrix(0.05,0,0,0.05,61.900000000000006,0)" xlink:href="#aV"/><use transform="matrix(0.05,0,0,0.05,71.9,0)" xlink:href="#aa"/><use transform="matrix(0.05,0,0,0.05,76.9,0)" xlink:href="#au"/><use transform="matrix(0.05,0,0,0.05,82.85000000000001,0)" xlink:href="#aC"/><use transform="matrix(0.05,0,0,0.05,88.80000000000001,0)" xlink:href="#ax"/></g><path fill="#333" d="M266 0h-40l-56-210L115 0H75L2-248h35L96-30l15-64 43-154h32l59 218 59-218h35" id="ba"/><g id="S"><use transform="matrix(0.05,0,0,0.05,0,0)" xlink:href="#aq"/><use transform="matrix(0.05,0,0,0.05,9,0)" xlink:href="#ab"/><use transform="matrix(0.05,0,0,0.05,19,0)" xlink:href="#aa"/><use transform="matrix(0.05,0,0,0.05,24,0)" xlink:href="#ba"/><use transform="matrix(0.05,0,0,0.05,40.599999999999994,0)" xlink:href="#ab"/><use transform="matrix(0.05,0,0,0.05,50.599999999999994,0)" xlink:href="#Y"/><use transform="matrix(0.05,0,0,0.05,54.54999999999999,0)" xlink:href="#aJ"/><use transform="matrix(0.05,0,0,0.05,64.55,0)" xlink:href="#aV"/><use transform="matrix(0.05,0,0,0.05,74.55,0)" xlink:href="#aa"/><use transform="matrix(0.05,0,0,0.05,79.55,0)" xlink:href="#au"/><use transform="matrix(0.05,0,0,0.05,85.5,0)" xlink:href="#aW"/><use transform="matrix(0.05,0,0,0.05,98.45,0)" xlink:href="#ab"/><use transform="matrix(0.05,0,0,0.05,108.45,0)" xlink:href="#Y"/><use transform="matrix(0.05,0,0,0.05,112.4,0)" xlink:href="#aJ"/><use transform="matrix(0.05,0,0,0.05,122.4,0)" xlink:href="#aV"/><use transform="matrix(0.05,0,0,0.05,132.4,0)" xlink:href="#aa"/><use transform="matrix(0.05,0,0,0.05,137.4,0)" xlink:href="#ax"/></g><path fill="#333" d="M199 0l-22-63H83L61 0H9l90-248h61L250 0h-51zm-33-102l-36-108c-10 38-24 72-36 108h72" id="bb"/><g id="T"><use transform="matrix(0.05,0,0,0.05,0,0)" xlink:href="#bb"/><use transform="matrix(0.05,0,0,0.05,12.950000000000001,0)" xlink:href="#an"/><use transform="matrix(0.05,0,0,0.05,23.900000000000002,0)" xlink:href="#am"/><use transform="matrix(0.05,0,0,0.05,33.900000000000006,0)" xlink:href="#ah"/><use transform="matrix(0.05,0,0,0.05,45.900000000000006,0)" xlink:href="#ai"/><use transform="matrix(0.05,0,0,0.05,56.85,0)" xlink:href="#aj"/><use transform="matrix(0.05,0,0,0.05,63.85,0)" xlink:href="#ak"/><use transform="matrix(0.05,0,0,0.05,69.80000000000001,0)" xlink:href="#ah"/><use transform="matrix(0.05,0,0,0.05,81.80000000000001,0)" xlink:href="#ak"/><use transform="matrix(0.05,0,0,0.05,87.75000000000001,0)" xlink:href="#aj"/><use transform="matrix(0.05,0,0,0.05,94.75000000000001,0)" xlink:href="#al"/><use transform="matrix(0.05,0,0,0.05,104.75,0)" xlink:href="#ak"/><use transform="matrix(0.05,0,0,0.05,110.7,0)" xlink:href="#am"/><use transform="matrix(0.05,0,0,0.05,120.7,0)" xlink:href="#an"/><use transform="matrix(0.05,0,0,0.05,131.65,0)" xlink:href="#ao"/></g><path fill="#333" d="M275 0h-61l-44-196L126 0H64L0-248h53L97-49l45-199h58l43 199 44-199h52" id="bc"/><path fill="#333" d="M114-157C55-157 80-60 75 0H25v-261h50l-1 109c12-26 28-41 61-42 86-1 58 113 63 194h-50c-7-57 23-157-34-157" id="bd"/><g id="U"><use transform="matrix(0.05,0,0,0.05,0,0)" xlink:href="#bc"/><use transform="matrix(0.05,0,0,0.05,16.599999999999998,0)" xlink:href="#am"/><use transform="matrix(0.05,0,0,0.05,26.599999999999994,0)" xlink:href="#aP"/><use transform="matrix(0.05,0,0,0.05,31.599999999999994,0)" xlink:href="#an"/><use transform="matrix(0.05,0,0,0.05,42.55,0)" xlink:href="#bd"/><use transform="matrix(0.05,0,0,0.05,53.5,0)" xlink:href="#ak"/><use transform="matrix(0.05,0,0,0.05,59.45,0)" xlink:href="#ah"/><use transform="matrix(0.05,0,0,0.05,71.45,0)" xlink:href="#ai"/><use transform="matrix(0.05,0,0,0.05,82.4,0)" xlink:href="#aj"/><use transform="matrix(0.05,0,0,0.05,89.4,0)" xlink:href="#ak"/><use transform="matrix(0.05,0,0,0.05,95.35000000000001,0)" xlink:href="#ah"/><use transform="matrix(0.05,0,0,0.05,107.35000000000001,0)" xlink:href="#ak"/><use transform="matrix(0.05,0,0,0.05,113.30000000000001,0)" xlink:href="#aj"/><use transform="matrix(0.05,0,0,0.05,120.30000000000001,0)" xlink:href="#al"/><use transform="matrix(0.05,0,0,0.05,130.3,0)" xlink:href="#ak"/><use transform="matrix(0.05,0,0,0.05,136.25,0)" xlink:href="#am"/><use transform="matrix(0.05,0,0,0.05,146.25,0)" xlink:href="#an"/><use transform="matrix(0.05,0,0,0.05,157.2,0)" xlink:href="#ao"/></g><path fill="#333" d="M175 0L67-191c6 58 2 128 3 191H24v-248h59L193-55c-6-58-2-129-3-193h46V0h-61" id="be"/><path fill="#333" d="M220-157c-53 9-28 100-34 157h-49v-107c1-27-5-49-29-50C55-147 81-57 75 0H25l-1-190h47c2 12-1 28 3 38 10-53 101-56 108 0 13-22 24-43 59-42 82 1 51 116 57 194h-49v-107c-1-25-5-48-29-50" id="bf"/><g id="V"><use transform="matrix(0.05,0,0,0.05,0,0)" xlink:href="#be"/><use transform="matrix(0.05,0,0,0.05,12.950000000000001,0)" xlink:href="#al"/><use transform="matrix(0.05,0,0,0.05,22.950000000000003,0)" xlink:href="#bf"/><use transform="matrix(0.05,0,0,0.05,38.95,0)" xlink:href="#am"/><use transform="matrix(0.05,0,0,0.05,48.95,0)" xlink:href="#ah"/><use transform="matrix(0.05,0,0,0.05,60.95,0)" xlink:href="#ai"/><use transform="matrix(0.05,0,0,0.05,71.9,0)" xlink:href="#aj"/><use transform="matrix(0.05,0,0,0.05,78.9,0)" xlink:href="#ak"/><use transform="matrix(0.05,0,0,0.05,84.85000000000001,0)" xlink:href="#ah"/><use transform="matrix(0.05,0,0,0.05,96.85000000000001,0)" xlink:href="#ak"/><use transform="matrix(0.05,0,0,0.05,102.80000000000001,0)" xlink:href="#aj"/><use transform="matrix(0.05,0,0,0.05,109.80000000000001,0)" xlink:href="#al"/><use transform="matrix(0.05,0,0,0.05,119.80000000000001,0)" xlink:href="#ak"/><use transform="matrix(0.05,0,0,0.05,125.75,0)" xlink:href="#am"/><use transform="matrix(0.05,0,0,0.05,135.75,0)" xlink:href="#an"/><use transform="matrix(0.05,0,0,0.05,146.7,0)" xlink:href="#ao"/></g><path fill="#333" d="M186 0v-106H76V0H24v-248h52v99h110v-99h50V0h-50" id="bg"/><g id="W"><use transform="matrix(0.05,0,0,0.05,0,0)" xlink:href="#bg"/><use transform="matrix(0.05,0,0,0.05,12.950000000000001,0)" xlink:href="#am"/><use transform="matrix(0.05,0,0,0.05,22.950000000000003,0)" xlink:href="#aP"/><use transform="matrix(0.05,0,0,0.05,27.950000000000003,0)" xlink:href="#an"/><use transform="matrix(0.05,0,0,0.05,38.900000000000006,0)" xlink:href="#bd"/><use transform="matrix(0.05,0,0,0.05,49.85000000000001,0)" xlink:href="#ak"/><use transform="matrix(0.05,0,0,0.05,55.80000000000001,0)" xlink:href="#ah"/><use transform="matrix(0.05,0,0,0.05,67.80000000000001,0)" xlink:href="#ai"/><use transform="matrix(0.05,0,0,0.05,78.75000000000001,0)" xlink:href="#aj"/><use transform="matrix(0.05,0,0,0.05,85.75000000000001,0)" xlink:href="#ak"/><use transform="matrix(0.05,0,0,0.05,91.70000000000002,0)" xlink:href="#ah"/><use transform="matrix(0.05,0,0,0.05,103.7,0)" xlink:href="#ak"/><use transform="matrix(0.05,0,0,0.05,109.65000000000003,0)" xlink:href="#aj"/><use transform="matrix(0.05,0,0,0.05,116.65000000000003,0)" xlink:href="#al"/><use transform="matrix(0.05,0,0,0.05,126.65000000000003,0)" xlink:href="#ak"/><use transform="matrix(0.05,0,0,0.05,132.60000000000002,0)" xlink:href="#am"/><use transform="matrix(0.05,0,0,0.05,142.60000000000002,0)" xlink:href="#an"/><use transform="matrix(0.05,0,0,0.05,153.55,0)" xlink:href="#ao"/></g></defs></g></svg>